<?xml version="1.0" encoding="UTF-8" standalone="no"?>
<svg
   xmlns:dc="http://purl.org/dc/elements/1.1/"
   xmlns:cc="http://creativecommons.org/ns#"
   xmlns:rdf="http://www.w3.org/1999/02/22-rdf-syntax-ns#"
   xmlns:svg="http://www.w3.org/2000/svg"
   xmlns="http://www.w3.org/2000/svg"
   xmlns:sodipodi="http://sodipodi.sourceforge.net/DTD/sodipodi-0.dtd"
   xmlns:inkscape="http://www.inkscape.org/namespaces/inkscape"
   version="1.1"
   id="svg2"
   viewBox="0 0 403.11274 163.29169"
   height="163.29169"
   width="403.11276"
   inkscape:version="0.91 r13725"
   sodipodi:docname="nokeys.svg">
  <sodipodi:namedview
     pagecolor="#ffffff"
     bordercolor="#666666"
     borderopacity="1"
     objecttolerance="10"
     gridtolerance="10"
     guidetolerance="10"
     inkscape:pageopacity="0"
     inkscape:pageshadow="2"
     inkscape:window-width="1440"
     inkscape:window-height="842"
     id="namedview4274"
     showgrid="false"
     inkscape:zoom="1.6847619"
     inkscape:cx="193.17345"
     inkscape:cy="81.645645"
     inkscape:window-x="1024"
     inkscape:window-y="1024"
     inkscape:window-maximized="1"
     inkscape:current-layer="g4375"
     fit-margin-top="20"
     fit-margin-bottom="20"
     fit-margin-left="88.539"
     fit-margin-right="88.539" />
  <defs
     id="defs4" />
  <metadata
     id="metadata7">
    <rdf:RDF>
      <cc:Work
         rdf:about="">
        <dc:format>image/svg+xml</dc:format>
        <dc:type
           rdf:resource="http://purl.org/dc/dcmitype/StillImage" />
        <dc:title></dc:title>
      </cc:Work>
    </rdf:RDF>
  </metadata>
  <g
     style="fill:#ffffff"
     id="g4375"
     transform="matrix(10.274307,0,0,10.274307,94.587448,-48.471738)">
    <path
       id="path4365"
       d="M 0,0 24,0 24,24 0,24 Z"
       inkscape:connector-curvature="0"
       style="fill:none" />
    <path
       id="path4367"
       d="m 11.061302,10.664366 c -0.82,-2.3300004 -3.0399999,-4.0000004 -5.6499999,-4.0000004 -3.31,0 -6,2.69 -6,6.0000004 0,3.31 2.69,6 6,6 2.61,0 4.8299999,-1.67 5.6499999,-4 l 4.35,0 0,4 4,0 0,-4 2,0 0,-4 -10.35,0 z m -5.6499999,4 c -1.1,0 -2,-0.9 -2,-2 0,-1.1 0.9,-2 2,-2 1.1,0 2,0.9 2,2 0,1.1 -0.9,2 -2,2 z"
       inkscape:connector-curvature="0"
       style="opacity:0.5;fill:#000000;fill-opacity:1" />
  </g>
</svg>
